<?xml version="1.0" encoding="utf-8"?>
<!-- Generator: Adobe Illustrator 24.0.2, SVG Export Plug-In . SVG Version: 6.00 Build 0)  -->
<svg version="1.1" id="Ebene_1" xmlns="http://www.w3.org/2000/svg" xmlns:xlink="http://www.w3.org/1999/xlink" x="0px" y="0px"
	 viewBox="0 0 24 23.9" style="enable-background:new 0 0 24 23.9;" xml:space="preserve">
<title>Icon_Footer_Top</title>
<g>
	<polygon points="0.4,14.8 3.3,14.8 3.3,23.7 4.3,23.7 4.3,14.8 7.2,14.8 7.2,13.9 0.4,13.9 	"/>
	<path d="M12.3,13.8c-1.5,0-2.5,0.5-3.2,1.5c-0.7,1-1.1,2.2-1.1,3.5c0,1.5,0.4,2.7,1.1,3.6c0.7,0.9,1.8,1.4,3.2,1.4
		c1.4,0,2.5-0.5,3.2-1.4c0.7-0.9,1.1-2.1,1.1-3.6c0-1.4-0.3-2.5-1-3.5C14.9,14.3,13.8,13.8,12.3,13.8z M14.9,21.7
		c-0.5,0.9-1.4,1.3-2.5,1.3c-1.1,0-2-0.5-2.5-1.3C9.3,20.8,9,19.9,9,18.8s0.3-2,0.8-2.9c0.5-0.8,1.4-1.3,2.5-1.3
		c1.1,0,2,0.5,2.5,1.3c0.5,0.8,0.8,1.8,0.8,2.9S15.4,20.8,14.9,21.7z"/>
	<path d="M21,13.9h-2.4v9.8h1v-4.2h1.3c0.9,0,1.6-0.2,2.2-0.7c0.6-0.5,0.9-1.2,0.9-2.1C24,14.8,23,13.9,21,13.9z M22.8,17.7
		c-0.1,0.3-0.4,0.5-0.6,0.6c-0.3,0.1-0.6,0.2-0.9,0.2c-0.3,0-0.7,0.1-1.1,0.1h-0.7v-3.9h1.6c1.3,0,1.9,0.7,1.9,1.9
		C23.1,17.1,23,17.5,22.8,17.7z"/>
	<polygon points="12.2,1.4 23,12 23.7,11.3 12.2,0 0,11.3 0.7,12.1 	"/>
</g>
</svg>
