<svg width="96" height="96" viewBox="0 0 96 96" fill="none" xmlns="http://www.w3.org/2000/svg">
<path d="M57 33L60 35" stroke="#004B5A" stroke-width="1.75" stroke-linecap="round"/>
<path d="M59 29H63" stroke="#004B5A" stroke-width="1.75" stroke-linecap="round"/>
<path d="M40 16.5706C38.2745 13.8282 35.2293 12 31.75 12C26.3652 12 22 16.3652 22 21.75C22 22.0032 22.019 22.2517 22.0379 22.5C22.0379 22.5 22 34 40 48C58 34 57.9621 22.5 57.9621 22.5C57.9811 22.2517 58 22.0032 58 21.75C58 16.3652 53.6348 12 48.25 12C44.7707 12 41.7255 13.8282 40 16.5706Z" fill="#FFCC00"/>
<path d="M44 44.6774C42.7769 45.7657 41.4467 46.8748 40 48C22 34 22.0379 22.5 22.0379 22.5C22.019 22.2517 22 22.0032 22 21.75C22 16.3652 26.3652 12 31.75 12C35.2293 12 38.2745 13.8282 40 16.5706C41.7255 13.8282 44.7707 12 48.25 12C53.0374 12 57.0189 15.4504 57.8434 20" stroke="#004B5A" stroke-width="1.75" stroke-linecap="round" stroke-linejoin="round"/>
<circle cx="50.5" cy="28.5" r="5.5" fill="#FFCC00"/>
<rect x="47.1562" y="77.6562" width="23.5625" height="6.34375" fill="white"/>
<rect x="47" y="78" width="24" height="6" fill="#D6EBEB"/>
<path d="M49 73V78H68.9062V73C74.0158 72.1731 75 67.8906 75 62V47C75 45.3431 73.6569 44 72 44H70C69.2903 44.5166 68 46.4133 68 46V42C68 40.3432 66.6569 39 65 39H63L61 41C61 39.3431 59.6569 38 58 38H56L54 40V29C54 27.3431 52.6569 26 51 26H49.9836C48.3268 26 46.9836 27.3431 46.9836 29V59C45.2805 51.5614 41.6612 50.5469 39 51C39.3548 53.4107 40.2226 58.2144 41.5 64C42.9647 70.6339 47.0484 72.3112 49 73Z" fill="white"/>
<path d="M54 50V29.5C54 27.567 52.433 26 50.5 26V26C48.567 26 47 27.567 47 29.5V60" stroke="#004B5A" stroke-width="1.75" stroke-linecap="round" stroke-linejoin="round"/>
<path d="M61 52V41.5C61 39.567 59.433 38 57.5 38V38C55.567 38 54 39.567 54 41.5V50" stroke="#004B5A" stroke-width="1.75" stroke-linecap="round" stroke-linejoin="round"/>
<path d="M68 53V42.5C68 40.567 66.433 39 64.5 39V39C62.567 39 61 40.567 61 42.5V52" stroke="#004B5A" stroke-width="1.75" stroke-linecap="round" stroke-linejoin="round"/>
<path d="M68 53V47.5C68 45.567 69.567 44 71.5 44V44C73.433 44 75 45.567 75 47.5V63C75 67.0644 74.457 71.9839 68.9062 73V78" stroke="#004B5A" stroke-width="1.75" stroke-linecap="round" stroke-linejoin="round"/>
<path d="M47 59.998C46.3004 57.6162 46.25 49.6409 39 51.0005L41.7188 64.9897C42.5932 68.0521 43.7533 70.9589 49 73.0005V78.0005" stroke="#004B5A" stroke-width="1.75" stroke-linecap="round" stroke-linejoin="round"/>
<path d="M71 84V78H47V84" stroke="#004B5A" stroke-width="1.75" stroke-linecap="round" stroke-linejoin="round"/>
<path d="M44 33L41 35" stroke="#004B5A" stroke-width="1.75" stroke-linecap="round"/>
<path d="M43 29H39" stroke="#004B5A" stroke-width="1.75" stroke-linecap="round"/>
<path d="M44 25L41 23" stroke="#004B5A" stroke-width="1.75" stroke-linecap="round"/>
<path d="M57 25L60 23" stroke="#004B5A" stroke-width="1.75" stroke-linecap="round"/>
</svg>
