<svg width="96" height="96" viewBox="0 0 96 96" fill="none" xmlns="http://www.w3.org/2000/svg">
<path d="M13 35C13 43 18.5714 51 26 51C33.4286 51 39 43 39 35C39 27 33.4286 19 26 19C18.5714 19 13 27 13 35Z" fill="white"/>
<path d="M46 65C46 58.9249 41.0751 54 35 54H17C10.9249 54 6 58.9249 6 65V79H46V65Z" fill="#D6EBEB"/>
<path d="M26 19C11.55 19 9 31.536 9 47L16.65 47L35.35 47H43C43 31.536 40.45 19 26 19Z" fill="white"/>
<path d="M13 35C13 42.9167 18.3129 51 25.8356 51C33.3583 51 39 42.75 39 34.8333C39 33.8843 38.8269 32.9354 38.6712 32" stroke="#004B5A" stroke-width="1.75" stroke-linecap="round" stroke-linejoin="round"/>
<path d="M21 44C21.4167 44.6667 23 46 26 46C29 46 30.5833 44.6667 31 44" stroke="#004B5A" stroke-width="1.75" stroke-linecap="round"/>
<path d="M21 54H17C10.9249 54 6 58.9249 6 65V79H46V65C46 58.9249 41.0751 54 35 54H31" stroke="#004B5A" stroke-width="1.75" stroke-linecap="round" stroke-linejoin="round"/>
<path d="M29.9996 25C29.9996 28.0556 26.9996 34.9998 12.9996 34.9998" stroke="#004B5A" stroke-width="1.75" stroke-linecap="round"/>
<path d="M38.4996 32C33.7377 32 29.9996 28.2813 29.9996 25" stroke="#004B5A" stroke-width="1.75" stroke-linecap="round"/>
<path d="M17 47L9 47C9 31.536 11.55 19 26 19C40.45 19 43 31.536 43 47L34.5 47" stroke="#004B5A" stroke-width="1.75" stroke-linecap="round" stroke-linejoin="round"/>
<path d="M30.3908 37.5273C30.284 37.5273 30.2084 37.6728 30.1656 37.8184C30.1211 37.9699 30.097 38.1652 30.097 38.3694C30.097 38.5737 30.1211 38.769 30.1656 38.9205C30.2084 39.0661 30.284 39.2116 30.3908 39.2116C30.4976 39.2116 30.5732 39.0661 30.616 38.9205C30.6605 38.769 30.6846 38.5737 30.6846 38.3694C30.6846 38.1652 30.6605 37.9699 30.616 37.8184C30.5732 37.6728 30.4976 37.5273 30.3908 37.5273Z" fill="#004B5A" stroke="#004B5A" stroke-width="1.75"/>
<path d="M22.5569 37.5273C22.4501 37.5273 22.3745 37.6728 22.3318 37.8184C22.2873 37.9699 22.2632 38.1652 22.2632 38.3694C22.2632 38.5737 22.2873 38.769 22.3318 38.9205C22.3745 39.0661 22.4501 39.2116 22.5569 39.2116C22.6638 39.2116 22.7393 39.0661 22.7821 38.9205C22.8266 38.769 22.8507 38.5737 22.8507 38.3694C22.8507 38.1652 22.8266 37.9699 22.7821 37.8184C22.7393 37.6728 22.6638 37.5273 22.5569 37.5273Z" fill="#004B5A" stroke="#004B5A" stroke-width="1.75"/>
<path d="M57.5 35C57.5 43 63.0714 51 70.5 51C77.9286 51 83.5 43 83.5 35C83.5 27 77.9286 19 70.5 19C63.0714 19 57.5 27 57.5 35Z" fill="white"/>
<path d="M90 65C90 58.9249 85.0751 54 79 54H61C54.9249 54 50 58.9249 50 65V79H90V65Z" fill="#D6EBEB"/>
<path d="M65 54H61C54.9249 54 50 58.9249 50 65V79H90V65C90 58.9249 85.0751 54 79 54H75" stroke="#004B5A" stroke-width="1.75" stroke-linecap="round" stroke-linejoin="round"/>
<path d="M73.9996 25C73.9996 28.0556 71.9996 35 59.9996 35" stroke="#004B5A" stroke-width="1.75" stroke-linecap="round"/>
<path d="M79.9996 32C76.9996 32 73.9996 28.2813 73.9996 25" stroke="#004B5A" stroke-width="1.75" stroke-linecap="round"/>
<path d="M57.5 35C57.5 43 63.0714 51 70.5 51C77.9286 51 83.5 43 83.5 35C83.5 27 77.9286 19 70.5 19C63.0714 19 57.5 27 57.5 35Z" stroke="#004B5A" stroke-width="1.75" stroke-linejoin="round"/>
<path d="M73.8828 38C73.7827 38 73.7118 38.1364 73.6717 38.2729C73.63 38.4149 73.6074 38.5979 73.6074 38.7894C73.6074 38.9809 73.63 39.164 73.6717 39.306C73.7118 39.4424 73.7827 39.5788 73.8828 39.5788C73.983 39.5788 74.0538 39.4424 74.0939 39.306C74.1356 39.164 74.1582 38.9809 74.1582 38.7894C74.1582 38.5979 74.1356 38.4149 74.0939 38.2729C74.0538 38.1364 73.983 38 73.8828 38Z" fill="#004B5A" stroke="#004B5A" stroke-width="1.75"/>
<path d="M66.5391 38C66.4389 38 66.3681 38.1364 66.328 38.2729C66.2863 38.4149 66.2637 38.5979 66.2637 38.7894C66.2637 38.9809 66.2863 39.164 66.328 39.306C66.3681 39.4424 66.4389 39.5788 66.5391 39.5788C66.6392 39.5788 66.71 39.4424 66.7501 39.306C66.7918 39.164 66.8144 38.9809 66.8144 38.7894C66.8144 38.5979 66.7918 38.4149 66.7501 38.2729C66.71 38.1364 66.6392 38 66.5391 38Z" fill="#004B5A" stroke="#004B5A" stroke-width="1.75"/>
<path d="M65.5 44C65.9167 44.6667 67.5 46 70.5 46C73.5 46 75.0833 44.6667 75.5 44" stroke="#004B5A" stroke-width="1.75" stroke-linecap="round"/>
</svg>
