<svg width="96" height="96" viewBox="0 0 96 96" fill="none" xmlns="http://www.w3.org/2000/svg">
<path d="M90 12L87.5455 15L76.0909 25L72 30V78H90V12Z" fill="#D6EBEB"/>
<path d="M90 28V78.0002H72V38" stroke="#004B5A" stroke-width="1.75" stroke-linecap="round" stroke-linejoin="round"/>
<path d="M24 40L6 58V78H24V40Z" fill="white"/>
<path d="M24 48V78H6V60" stroke="#004B5A" stroke-width="1.75" stroke-linecap="round" stroke-linejoin="round"/>
<path d="M38 23L6 55L9 58L38 29L63 42L86 19L86 24L90 24L90 12L78 12L78 16L83 16L63 36L38 23Z" fill="#FFCC00"/>
<path d="M31.1762 35.8238L9 58L6 55L30 31M64.5 34.5L83 16L78 16L78 12L90 12L90 24L86 24L86 19L64.5 40.5" stroke="#004B5A" stroke-width="1.75" stroke-linecap="round" stroke-linejoin="round"/>
<path d="M34.0009 32.3611C34.0009 40.5417 40.0008 48.7222 48.0007 48.7222C56.0006 48.7222 62.0005 40.5417 62.0005 32.3611C62.0005 24.1806 56.0006 16 48.0007 16C40.0008 16 34.0009 24.1806 34.0009 32.3611Z" fill="white"/>
<path d="M69.0001 67.1665C69.0001 58.8822 62.2843 52.1665 54.0001 52.1665H42.0007C33.7164 52.1665 27.0007 58.8822 27.0007 67.1665V77.9998H69.0001V67.1665Z" fill="white"/>
<path d="M69.0001 67.1665C69.0001 58.8822 62.2844 52.1665 54.0001 52.1665H42.0007C33.7165 52.1665 27.0007 58.8822 27.0007 67.1665V77.9998H69.0001V67.1665Z" fill="white"/>
<path d="M43.3573 34.1465C42.8829 34.1465 42.5784 34.5004 42.4283 34.7806C42.2669 35.0821 42.1871 35.4536 42.1871 35.8274C42.1871 36.0631 42.2187 36.2956 42.2812 36.5096C42.3266 36.6649 42.4695 36.7632 42.6207 36.7433C43.0889 36.6814 43.6172 36.6294 44.1914 36.5894C44.3319 36.5797 44.4493 36.4716 44.4789 36.3248C44.5112 36.1647 44.5276 35.9971 44.5276 35.8274C44.5276 35.4536 44.4478 35.0821 44.2864 34.7806C44.1363 34.5004 43.8317 34.1465 43.3573 34.1465Z" fill="#004B5A"/>
<path d="M52.2773 34.1465C51.8029 34.1465 51.4984 34.5104 51.3483 34.7986C51.1868 35.1086 51.1071 35.4907 51.1071 35.875C51.1071 36.0333 51.1205 36.1897 51.1471 36.3401C51.1747 36.4966 51.2963 36.612 51.4413 36.6196C52.0151 36.6498 52.5526 36.692 53.0415 36.7442C53.1951 36.7606 53.3369 36.6525 53.3765 36.4888C53.4237 36.2937 53.4476 36.0858 53.4476 35.875C53.4476 35.4907 53.3678 35.1086 53.2064 34.7986C53.0563 34.5104 52.7517 34.1465 52.2773 34.1465Z" fill="#004B5A"/>
<path d="M34.3489 28.9165C34.1207 30.0493 34.0009 31.2051 34.0009 32.3609C34.0009 40.5415 40.0008 48.7221 48.0007 48.7221C56.0006 48.7221 62.0005 40.5415 62.0005 32.3609C62.0005 31.2051 61.8807 30.0493 61.6524 28.9165" stroke="#004B5A" stroke-width="1.75" stroke-linecap="round" stroke-linejoin="round"/>
<path d="M53.2497 52.1665H53.9995C62.2838 52.1665 68.9995 58.8822 68.9995 67.1665V77.9998H27.0001V67.1665C27.0001 58.8822 33.7158 52.1665 42.0001 52.1665H42.7499" stroke="#004B5A" stroke-width="1.75" stroke-linecap="round" stroke-linejoin="round"/>
<path d="M42.7499 40.9722C43.1874 41.8333 44.8498 43.5555 47.9998 43.5555C51.1498 43.5555 52.8122 41.8333 53.2497 40.9722" stroke="#004B5A" stroke-width="1.75" stroke-linecap="round"/>
<path d="M37.5008 16L34.8758 26.3333H61.1254L58.5004 16H37.5008Z" fill="#D6EBEB"/>
<path d="M63.7498 16V24.6111" stroke="#004B5A" stroke-width="1.75" stroke-linecap="round"/>
<path d="M31.3754 16L64.6249 16" stroke="#004B5A" stroke-width="1.75" stroke-linecap="round"/>
<path d="M37.5031 16H58.5028L61.1278 26.3333H34.8782L37.5031 16Z" fill="#D6EBEB" stroke="#004B5A" stroke-width="1.75" stroke-linejoin="round"/>
<ellipse cx="48.3752" cy="68.0359" rx="1.12498" ry="1.10714" fill="#004B5A"/>
<ellipse cx="48.3752" cy="56.9641" rx="1.12498" ry="1.10714" fill="#004B5A"/>
<ellipse cx="48.3752" cy="73.5715" rx="1.12498" ry="1.10714" fill="#004B5A"/>
<ellipse cx="48.3752" cy="62.5002" rx="1.12498" ry="1.10714" fill="#004B5A"/>
</svg>
