<svg width="96" height="96" viewBox="0 0 96 96" fill="none" xmlns="http://www.w3.org/2000/svg">
<path fill-rule="evenodd" clip-rule="evenodd" d="M35.1112 22.2917C35.5171 16.54 40.3117 12 46.1667 12C52.0216 12 56.8163 16.54 57.2222 22.2917L57.25 22.2917C65.1201 22.2917 71.5 28.6716 71.5 36.5417C71.5 44.4117 65.1201 50.7917 57.25 50.7917C54.0533 50.7917 51.1025 49.7391 48.7252 47.9616C47.7092 50.1027 45.5275 51.5833 43 51.5833C39.5022 51.5833 36.6667 48.7478 36.6667 45.25C36.6667 44.9398 36.689 44.6348 36.7321 44.3365C36.1941 44.4168 35.6436 44.4583 35.0833 44.4583C28.9622 44.4583 24 39.4962 24 33.375C24 27.2538 28.9622 22.2917 35.0833 22.2917L35.1112 22.2917Z" fill="white"/>
<path d="M35.1112 22.2917L35.1101 23.1667C35.5698 23.1673 35.9516 22.8119 35.984 22.3533L35.1112 22.2917ZM57.2222 22.2917L56.3493 22.3533C56.3817 22.8118 56.7634 23.1672 57.223 23.1667L57.2222 22.2917ZM57.25 22.2917V21.4167H57.2491L57.25 22.2917ZM48.7252 47.9616L49.2491 47.2608C49.039 47.1037 48.7694 47.0491 48.5147 47.1122C48.26 47.1753 48.0471 47.3494 47.9346 47.5865L48.7252 47.9616ZM36.7321 44.3365L37.5981 44.4616C37.6376 44.1879 37.5454 43.9115 37.3494 43.7164C37.1533 43.5213 36.8766 43.4303 36.603 43.4711L36.7321 44.3365ZM35.0833 22.2917L35.0844 21.4167H35.0833V22.2917ZM46.1667 11.125C39.8491 11.125 34.6764 16.0235 34.2383 22.2301L35.984 22.3533C36.3578 17.0566 40.7743 12.875 46.1667 12.875V11.125ZM58.095 22.2301C57.657 16.0235 52.4843 11.125 46.1667 11.125V12.875C51.559 12.875 55.9755 17.0565 56.3493 22.3533L58.095 22.2301ZM57.2491 21.4167L57.2213 21.4167L57.223 23.1667L57.2509 23.1667L57.2491 21.4167ZM72.375 36.5417C72.375 28.1884 65.6033 21.4167 57.25 21.4167V23.1667C64.6368 23.1667 70.625 29.1549 70.625 36.5417H72.375ZM57.25 51.6667C65.6033 51.6667 72.375 44.895 72.375 36.5417H70.625C70.625 43.9285 64.6368 49.9167 57.25 49.9167V51.6667ZM48.2012 48.6623C50.7246 50.5491 53.858 51.6667 57.25 51.6667V49.9167C54.2486 49.9167 51.4804 48.9291 49.2491 47.2608L48.2012 48.6623ZM43 52.4583C45.878 52.4583 48.3604 50.7716 49.5157 48.3366L47.9346 47.5865C47.0581 49.4339 45.177 50.7083 43 50.7083V52.4583ZM35.7917 45.25C35.7917 49.2311 39.0189 52.4583 43 52.4583V50.7083C39.9854 50.7083 37.5417 48.2646 37.5417 45.25H35.7917ZM35.866 44.2114C35.817 44.551 35.7917 44.8978 35.7917 45.25H37.5417C37.5417 44.9818 37.5609 44.7186 37.5981 44.4616L35.866 44.2114ZM35.0833 45.3333C35.6869 45.3333 36.2806 45.2885 36.8611 45.202L36.603 43.4711C36.1077 43.545 35.6002 43.5833 35.0833 43.5833V45.3333ZM23.125 33.375C23.125 39.9794 28.4789 45.3333 35.0833 45.3333V43.5833C29.4454 43.5833 24.875 39.0129 24.875 33.375H23.125ZM35.0833 21.4167C28.4789 21.4167 23.125 26.7706 23.125 33.375H24.875C24.875 27.7371 29.4454 23.1667 35.0833 23.1667V21.4167ZM35.1123 21.4167L35.0844 21.4167L35.0822 23.1667L35.1101 23.1667L35.1123 21.4167Z" fill="#004B5A"/>
<path d="M40.625 69.0007C47.75 53.959 41.4166 41.1604 39.0416 35.7507C40.625 35.7507 43.3958 36.9382 44.5833 39.709C44.5833 34.959 46.325 31.7923 48.5416 30.209C48.2777 32.8479 46.9583 41.2923 48.5416 46.0423C50.125 42.8757 53.2916 37.334 58.0416 37.334C55.2708 41.2923 47.75 52.3757 54.875 69.0007H40.625Z" fill="#D6EBEB"/>
<path d="M40.625 69.0007C47.75 53.959 41.4166 41.1604 39.0416 35.7507C40.625 35.7507 43.3958 36.9382 44.5833 39.709C44.5833 34.959 46.325 31.7923 48.5416 30.209C48.2777 32.8479 46.9583 41.2923 48.5416 46.0423C50.125 42.8757 53.2916 37.334 58.0416 37.334C55.2708 41.2923 47.75 52.3757 54.875 69.0007H40.625Z" stroke="#004B5A" stroke-width="1.75" stroke-linecap="round" stroke-linejoin="round"/>
<path d="M45.375 23.0837C47.75 21.5002 54.0833 22.2921 54.875 27.8337C58.8333 26.2505 65.9583 28.6255 65.9583 35.7505" stroke="#004B5A" stroke-width="1.75" stroke-linecap="round" stroke-linejoin="round"/>
<rect x="12" y="48" width="8.98346" height="30" fill="white"/>
<rect x="12" y="48" width="8.98346" height="30" fill="#D6EBEB"/>
<path d="M21 75V51H27C35.3846 51 38.5009 57 39 60H51C58.1868 60 62.0018 64 63 66L75 63C82.4862 61.5 84 67 84 69L48 84L21 75Z" fill="white"/>
<path d="M20.9835 74.9999L47.9339 83.9999L83.8677 68.9999C84.3668 66.4999 83.8677 61.5 74.8843 63L62.9063 66M20.9835 51H26.9725C29.9669 51 37.4532 52.5 38.9504 60H50.9284C55.4201 60 62.9063 61.5 62.9063 69H35.9559M12 48H20.9835V78H12" stroke="#004B5A" stroke-width="1.75" stroke-linecap="round" stroke-linejoin="round"/>
</svg>
