<svg width="96" height="96" viewBox="0 0 96 96" fill="none" xmlns="http://www.w3.org/2000/svg">
<path d="M47.1124 30.2547C36.3504 41.0168 37.0615 66.8649 38.0865 73.5272C47.3111 71.9897 51.7247 72.0218 56.1514 72.0218C50.0016 63.412 50.6998 47.6789 51.7247 41.0168C52.1978 37.9418 53.2622 36.4045 54.7996 34.867L80.936 51.7788C84.6258 34.5595 68.8672 26.1548 60.6676 24.1049L80.2379 17.8272C66.7084 6.75769 54.7996 16.9302 50.1873 22.5675C39.1178 7.80808 25.6589 12.222 20.0216 16.3218L44.0375 24.1048C20.6685 19.1851 14.5125 38.1982 14 47.9353L23.0324 41.9136L24.5378 35.892L29.0541 38.9028L38.0865 34.3866C41.1614 32.8492 44.0375 31.7922 47.1124 30.2547Z" fill="white"/>
<path d="M24.5378 35.8921L29.0541 38.9029L38.0865 34.3867L47.1124 30.2548L80.936 51.7788C84.6258 34.5595 69.149 26.1548 60.9493 24.1048L80.2379 17.8272C66.7084 6.75767 54.7996 16.9302 50.1873 22.5674C39.1178 7.80806 25.6589 12.222 20.0216 16.3218L44.0375 24.1048C20.6685 19.185 14.5125 38.1983 14 47.9354L23.0324 41.9138L24.5378 35.8921Z" fill="white"/>
<path d="M50.1297 72.0215C35.6778 72.0215 25.2905 80.0503 23.0323 84.0647H77.227C73.4634 80.0503 64.5815 72.0215 50.1297 72.0215Z" fill="white"/>
<path d="M24.5378 35.8921L29.0541 38.9029L38.0865 34.3867L47.1124 30.2548L80.936 51.7788C84.6258 34.5595 69.149 26.1548 60.9493 24.1048L80.2379 17.8272C66.7084 6.75767 54.7996 16.9302 50.1873 22.5674C39.1178 7.80806 25.6589 12.222 20.0216 16.3218L44.0375 24.1048C20.6685 19.185 14.5125 38.1983 14 47.9354L23.0324 41.9138L24.5378 35.8921Z" fill="#D6EBEB"/>
<path d="M38.0867 73.5257C36.8815 66.2917 36.5653 48.0645 43.5653 35.0645" stroke="#004B5A" stroke-width="1.75" stroke-linecap="round" stroke-linejoin="round"/>
<path d="M56.5652 72.5645C53.4906 66.4147 48.5653 52.0645 52.5652 38.0645" stroke="#004B5A" stroke-width="1.75" stroke-linecap="round" stroke-linejoin="round"/>
<path d="M30.5596 19.3322L20.0217 16.3214C30.1874 7.42567 45.5086 13.7023 50.1875 22.203" stroke="#004B5A" stroke-width="1.75" stroke-linecap="round" stroke-linejoin="round"/>
<path d="M44.0375 24.104C31.7381 19.4919 14 29.4874 14 47.9343L23.0324 41.9131L24.5378 35.8915L29.0541 38.9023L44.0375 31.5648M47.1124 30.254L80.936 51.7781C85.5483 33.3286 64.0242 21.0294 53.2622 25.6414" stroke="#004B5A" stroke-width="1.75" stroke-linecap="round" stroke-linejoin="round"/>
<path d="M66.6896 22.3427L80.2383 17.8265C72.5511 8.60127 54.7998 13.3424 50.1875 22.5671" stroke="#004B5A" stroke-width="1.75" stroke-linecap="round" stroke-linejoin="round"/>
<path d="M50.1872 47.166H47.1123" stroke="#004B5A" stroke-width="1.75" stroke-linecap="round"/>
<path d="M51.7248 59.4658H45.5751" stroke="#004B5A" stroke-width="1.75" stroke-linecap="round"/>
<path d="M53.262 65.6152H47.1123" stroke="#004B5A" stroke-width="1.75" stroke-linecap="round"/>
<path d="M50.1873 53.3154H44.0376" stroke="#004B5A" stroke-width="1.75" stroke-linecap="round"/>
<path d="M31.5953 75.7663C26.8339 78.3159 23.5125 81.4265 22.2698 83.6358L24.0588 84.0667H76.0189L77.8654 83.4663C74.0333 79.3788 64.9358 71.1465 50.1297 71.1465C42.7409 71.1465 36.3903 73.1987 31.5953 75.7663Z" fill="#FFCC00"/>
<path d="M23.0323 84.0647C25.2905 80.0503 35.6778 72.0215 50.1297 72.0215C64.5815 72.0215 73.4634 80.0503 77.227 84.0647" stroke="#004B5A" stroke-width="1.75" stroke-linecap="round" stroke-linejoin="round"/>
</svg>
