<svg width="96" height="96" viewBox="0 0 96 96" fill="none" xmlns="http://www.w3.org/2000/svg">
<rect x="51" y="18" width="34" height="60" fill="white"/>
<path d="M17.6667 33.8333C17.6667 41.75 23.381 49.6667 31 49.6667C38.6191 49.6667 44.3334 41.75 44.3334 33.8333C44.3334 25.9167 38.6191 18 31 18C23.381 18 17.6667 25.9167 17.6667 33.8333Z" fill="white"/>
<path d="M51 64C51 57.9249 46.0751 53 40 53H22C15.9249 53 11 57.9249 11 64V78H51V64Z" fill="white"/>
<path d="M31 17C16.55 17 14 29.9837 14 46L21.65 46L40.35 46H48C48 29.9837 45.45 17 31 17Z" fill="white"/>
<path d="M18.0004 34C18.0004 41.9167 23.3813 50 31.0004 50C38.6194 50 44.3334 41.75 44.3334 33.8333C44.3334 32.8843 44.158 31.9354 44.0004 31" stroke="#004B5A" stroke-width="1.75" stroke-linecap="round" stroke-linejoin="round"/>
<path d="M34.7794 37.4375C34.6763 37.4375 34.6034 37.5779 34.5622 37.7183C34.5192 37.8645 34.496 38.0529 34.496 38.25C34.496 38.4471 34.5192 38.6355 34.5622 38.7817C34.6034 38.9221 34.6763 39.0625 34.7794 39.0625C34.8825 39.0625 34.9554 38.9221 34.9966 38.7817C35.0396 38.6355 35.0628 38.4471 35.0628 38.25C35.0628 38.0529 35.0396 37.8645 34.9966 37.7183C34.9554 37.5779 34.8825 37.4375 34.7794 37.4375Z" fill="#004B5A" stroke="#004B5A" stroke-width="1.75"/>
<path d="M27.2209 37.4375C27.1179 37.4375 27.0449 37.5779 27.0037 37.7183C26.9607 37.8645 26.9375 38.0529 26.9375 38.25C26.9375 38.4471 26.9607 38.6355 27.0037 38.7817C27.0449 38.9221 27.1179 39.0625 27.2209 39.0625C27.324 39.0625 27.3969 38.9221 27.4382 38.7817C27.4811 38.6355 27.5044 38.4471 27.5044 38.25C27.5044 38.0529 27.4811 37.8645 27.4382 37.7183C27.3969 37.5779 27.324 37.4375 27.2209 37.4375Z" fill="#004B5A" stroke="#004B5A" stroke-width="1.75"/>
<path d="M27 43C27.3333 43.6667 28.6 45 31 45C33.4 45 34.6667 43.6667 35 43" stroke="#004B5A" stroke-width="1.75" stroke-linecap="round"/>
<path d="M26 53H22C15.9249 53 11 57.9249 11 64V78H51V64C51 57.9249 46.0751 53 40 53H36" stroke="#004B5A" stroke-width="1.75" stroke-linecap="round" stroke-linejoin="round"/>
<path d="M34.9996 24C34.9996 27.0556 31.9996 33.9998 17.9996 33.9998" stroke="#004B5A" stroke-width="1.75" stroke-linecap="round"/>
<path d="M43.9996 31C39.2377 31 34.9996 27.2813 34.9996 24" stroke="#004B5A" stroke-width="1.75" stroke-linecap="round"/>
<path d="M21.65 46L14 46C14 30.536 16.55 18 31 18C45.45 18 48 30.536 48 46H40.35" stroke="#004B5A" stroke-width="1.75" stroke-linecap="round" stroke-linejoin="round"/>
<circle cx="31" cy="63" r="1" fill="#004B5A"/>
<circle cx="31" cy="68" r="1" fill="#004B5A"/>
<circle cx="31" cy="73" r="1" fill="#004B5A"/>
<circle cx="31" cy="58" r="1" fill="#004B5A"/>
<path d="M85 78V18H51V55" stroke="#004B5A" stroke-width="1.75" stroke-linecap="round" stroke-linejoin="round"/>
<path d="M55 22H61V32H55V22Z" fill="#D6EBEB"/>
<path d="M55 22V21.125C54.5168 21.125 54.125 21.5168 54.125 22H55ZM61 22H61.875C61.875 21.5168 61.4832 21.125 61 21.125V22ZM61 32V32.875C61.4832 32.875 61.875 32.4832 61.875 32H61ZM55 32H54.125C54.125 32.4832 54.5168 32.875 55 32.875V32ZM55 22.875H61V21.125H55V22.875ZM60.125 22V32H61.875V22H60.125ZM61 31.125H55V32.875H61V31.125ZM55.875 32V22H54.125V32H55.875Z" fill="#004B5A"/>
<path d="M55 36H61V46H55V36Z" fill="#D6EBEB"/>
<path d="M55 36V35.125C54.5168 35.125 54.125 35.5168 54.125 36H55ZM61 36H61.875C61.875 35.5168 61.4832 35.125 61 35.125V36ZM61 46V46.875C61.4832 46.875 61.875 46.4832 61.875 46H61ZM55 46H54.125C54.125 46.4832 54.5168 46.875 55 46.875V46ZM55 36.875H61V35.125H55V36.875ZM60.125 36V46H61.875V36H60.125ZM61 45.125H55V46.875H61V45.125ZM55.875 46V36H54.125V46H55.875Z" fill="#004B5A"/>
<path d="M55 50H61V60H55V50Z" fill="#D6EBEB"/>
<path d="M55 50V49.125C54.5168 49.125 54.125 49.5168 54.125 50H55ZM61 50H61.875C61.875 49.5168 61.4832 49.125 61 49.125V50ZM61 60V60.875C61.4832 60.875 61.875 60.4832 61.875 60H61ZM55 60H54.125C54.125 60.4832 54.5168 60.875 55 60.875V60ZM55 50.875H61V49.125H55V50.875ZM60.125 50V60H61.875V50H60.125ZM61 59.125H55V60.875H61V59.125ZM55.875 60V50H54.125V60H55.875Z" fill="#004B5A"/>
<path d="M55 64H61V74H55V64Z" fill="#D6EBEB"/>
<path d="M55 64V63.125C54.5168 63.125 54.125 63.5168 54.125 64H55ZM61 64H61.875C61.875 63.5168 61.4832 63.125 61 63.125V64ZM61 74V74.875C61.4832 74.875 61.875 74.4832 61.875 74H61ZM55 74H54.125C54.125 74.4832 54.5168 74.875 55 74.875V74ZM55 64.875H61V63.125H55V64.875ZM60.125 64V74H61.875V64H60.125ZM61 73.125H55V74.875H61V73.125ZM55.875 74V64H54.125V74H55.875Z" fill="#004B5A"/>
<path d="M65 22H71V32H65V22Z" fill="#D6EBEB"/>
<path d="M65 22V21.125C64.5168 21.125 64.125 21.5168 64.125 22H65ZM71 22H71.875C71.875 21.5168 71.4832 21.125 71 21.125V22ZM71 32V32.875C71.4832 32.875 71.875 32.4832 71.875 32H71ZM65 32H64.125C64.125 32.4832 64.5168 32.875 65 32.875V32ZM65 22.875H71V21.125H65V22.875ZM70.125 22V32H71.875V22H70.125ZM71 31.125H65V32.875H71V31.125ZM65.875 32V22H64.125V32H65.875Z" fill="#004B5A"/>
<path d="M65 36H71V46H65V36Z" fill="#D6EBEB"/>
<path d="M65 36V35.125C64.5168 35.125 64.125 35.5168 64.125 36H65ZM71 36H71.875C71.875 35.5168 71.4832 35.125 71 35.125V36ZM71 46V46.875C71.4832 46.875 71.875 46.4832 71.875 46H71ZM65 46H64.125C64.125 46.4832 64.5168 46.875 65 46.875V46ZM65 36.875H71V35.125H65V36.875ZM70.125 36V46H71.875V36H70.125ZM71 45.125H65V46.875H71V45.125ZM65.875 46V36H64.125V46H65.875Z" fill="#004B5A"/>
<path d="M65 50H71V60H65V50Z" fill="#D6EBEB"/>
<path d="M65 50V49.125C64.5168 49.125 64.125 49.5168 64.125 50H65ZM71 50H71.875C71.875 49.5168 71.4832 49.125 71 49.125V50ZM71 60V60.875C71.4832 60.875 71.875 60.4832 71.875 60H71ZM65 60H64.125C64.125 60.4832 64.5168 60.875 65 60.875V60ZM65 50.875H71V49.125H65V50.875ZM70.125 50V60H71.875V50H70.125ZM71 59.125H65V60.875H71V59.125ZM65.875 60V50H64.125V60H65.875Z" fill="#004B5A"/>
<path d="M65 64H71V78H65V64Z" fill="#D6EBEB"/>
<path d="M65 64V63.125C64.5168 63.125 64.125 63.5168 64.125 64H65ZM71 64H71.875C71.875 63.5168 71.4832 63.125 71 63.125V64ZM71 78V78.875C71.4832 78.875 71.875 78.4832 71.875 78H71ZM65 78H64.125C64.125 78.4832 64.5168 78.875 65 78.875V78ZM65 64.875H71V63.125H65V64.875ZM70.125 64V78H71.875V64H70.125ZM71 77.125H65V78.875H71V77.125ZM65.875 78V64H64.125V78H65.875Z" fill="#004B5A"/>
<path d="M75 22H81V32H75V22Z" fill="#D6EBEB"/>
<path d="M75 22V21.125C74.5168 21.125 74.125 21.5168 74.125 22H75ZM81 22H81.875C81.875 21.5168 81.4832 21.125 81 21.125V22ZM81 32V32.875C81.4832 32.875 81.875 32.4832 81.875 32H81ZM75 32H74.125C74.125 32.4832 74.5168 32.875 75 32.875V32ZM75 22.875H81V21.125H75V22.875ZM80.125 22V32H81.875V22H80.125ZM81 31.125H75V32.875H81V31.125ZM75.875 32V22H74.125V32H75.875Z" fill="#004B5A"/>
<path d="M75 36H81V46H75V36Z" fill="#D6EBEB"/>
<path d="M75 36V35.125C74.5168 35.125 74.125 35.5168 74.125 36H75ZM81 36H81.875C81.875 35.5168 81.4832 35.125 81 35.125V36ZM81 46V46.875C81.4832 46.875 81.875 46.4832 81.875 46H81ZM75 46H74.125C74.125 46.4832 74.5168 46.875 75 46.875V46ZM75 36.875H81V35.125H75V36.875ZM80.125 36V46H81.875V36H80.125ZM81 45.125H75V46.875H81V45.125ZM75.875 46V36H74.125V46H75.875Z" fill="#004B5A"/>
<path d="M75 50H81V60H75V50Z" fill="#D6EBEB"/>
<path d="M75 50V49.125C74.5168 49.125 74.125 49.5168 74.125 50H75ZM81 50H81.875C81.875 49.5168 81.4832 49.125 81 49.125V50ZM81 60V60.875C81.4832 60.875 81.875 60.4832 81.875 60H81ZM75 60H74.125C74.125 60.4832 74.5168 60.875 75 60.875V60ZM75 50.875H81V49.125H75V50.875ZM80.125 50V60H81.875V50H80.125ZM81 59.125H75V60.875H81V59.125ZM75.875 60V50H74.125V60H75.875Z" fill="#004B5A"/>
<path d="M75 64H81V74H75V64Z" fill="#D6EBEB"/>
<path d="M75 64V63.125C74.5168 63.125 74.125 63.5168 74.125 64H75ZM81 64H81.875C81.875 63.5168 81.4832 63.125 81 63.125V64ZM81 74V74.875C81.4832 74.875 81.875 74.4832 81.875 74H81ZM75 74H74.125C74.125 74.4832 74.5168 74.875 75 74.875V74ZM75 64.875H81V63.125H75V64.875ZM80.125 64V74H81.875V64H80.125ZM81 73.125H75V74.875H81V73.125ZM75.875 74V64H74.125V74H75.875Z" fill="#004B5A"/>
<path d="M6 78H90.5" stroke="#004B5A" stroke-width="1.75" stroke-linecap="round" stroke-linejoin="round"/>
</svg>
