<?xml version="1.0" encoding="UTF-8"?>
<svg width="34px" height="39px" viewBox="0 0 34 39" version="1.1" xmlns="http://www.w3.org/2000/svg" xmlns:xlink="http://www.w3.org/1999/xlink">
    <title>Icon_Footer_Xing</title>
    <defs>
        <polygon id="path-1" points="0 3.66300366e-05 13.9358429 3.66300366e-05 13.9358429 19.9435531 0 19.9435531"></polygon>
    </defs>
    <g id="Stellenbeschrieb_Chatbot" stroke="none" stroke-width="1" fill="none" fill-rule="evenodd">
        <g id="PF_Stellenbeschrieb_Desktop_alle_Bausteine_Zustand_2" transform="translate(-768.000000, -5660.000000)">
            <g id="footer_share_open" transform="translate(0.000000, 5631.000000)">
                <g id="Icon_Footer_Xing" transform="translate(768.000000, 29.000000)">
                    <g id="Group-3" transform="translate(0.000000, 7.000000)">
                        <mask id="mask-2" fill="white">
                            <use xlink:href="#path-1"></use>
                        </mask>
                        <g id="Clip-2"></g>
                        <path d="M6.41912857,19.9435531 C7.01012857,19.9435531 7.51634286,19.5767399 7.93648571,18.8420147 C11.7802714,11.8513187 13.7797714,8.21249084 13.9358429,7.92421245 L10.1077714,1.07747253 C9.70298571,0.359157509 9.18934286,3.66300366e-05 8.56727143,3.66300366e-05 L2.98798571,3.66300366e-05 C2.62948571,3.66300366e-05 2.3812,0.11967033 2.24091429,0.359084249 C2.06955714,0.598498168 2.07741429,0.894029304 2.26412857,1.24465201 L6.0222,7.92421245 C6.03748571,7.94113553 6.03748571,7.94846154 6.0222,7.94846154 L0.116342857,18.6747619 C-0.0388,18.9786447 -0.0388,19.2656044 0.116342857,19.5360806 C0.271557143,19.8081685 0.513271429,19.9435531 0.839842857,19.9435531 L6.41912857,19.9435531 Z" id="Fill-1" fill="#000000" mask="url(#mask-2)"></path>
                    </g>
                    <path d="M33.1214465,0 L27.321034,0 C26.6953896,0 26.1815437,0.353677691 25.7808956,1.06110522 C17.5492709,15.3657156 13.2889233,22.7701478 13,23.2722374 L21.1590809,37.9389669 C21.5440418,38.6463223 22.0736485,39 22.7474591,39 L28.4997054,39 C28.8525556,39 29.1094417,38.8821074 29.2699956,38.6463223 C29.4299602,38.3782863 29.4222271,38.0873067 29.2460598,37.7733834 L21.1595228,23.2722374 L21.1595228,23.2492938 L33.8678745,1.22618367 C34.0440418,0.896387521 34.0440418,0.606273691 33.8678745,0.354110589 C33.7231551,0.117892564 33.4743703,0 33.1214465,0" id="Fill-4" fill="#000000"></path>
                </g>
            </g>
        </g>
    </g>
</svg>