<?xml version="1.0" encoding="UTF-8"?>
<svg width="31px" height="21px" viewBox="0 0 31 21" version="1.1" xmlns="http://www.w3.org/2000/svg" xmlns:xlink="http://www.w3.org/1999/xlink">
    <title>Icon_Footer_Mail</title>
    <defs>
        <polygon id="path-1" points="0 0.075177305 29.8686279 0.075177305 29.8686279 19.9959858 0 19.9959858"></polygon>
        <polygon id="path-3" points="0.098727451 0.072745098 27.8707471 0.072745098 27.8707471 13.9607476 0.098727451 13.9607476"></polygon>
        <polygon id="path-5" points="0 0.0349039683 8.94980769 0.0349039683 8.94980769 16.9961817 0 16.9961817"></polygon>
    </defs>
    <g id="Stellenbeschrieb_Chatbot" stroke="none" stroke-width="1" fill="none" fill-rule="evenodd">
        <g id="PF_Stellenbeschrieb_Desktop_alle_Bausteine_Zustand_2" transform="translate(-938.000000, -5669.000000)">
            <g id="footer_share_open" transform="translate(0.000000, 5631.000000)">
                <g id="Icon_Footer_Mail" transform="translate(938.000000, 38.000000)">
                    <g id="Group-3">
                        <mask id="mask-2" fill="white">
                            <use xlink:href="#path-1"></use>
                        </mask>
                        <g id="Clip-2"></g>
                        <path d="M0.30272093,19.9959858 C3.33174419,16.9256312 6.2365814,13.9810922 9.01918605,11.160383 C6.10486047,8.1975461 3.14797674,5.19130496 0.17072093,2.16435461 C0.123418605,2.48236879 0.0110930233,2.88974468 0.0101162791,3.29740426 C-0.00202325581,8.32903546 -0.00634883721,13.3606667 0.0148604651,18.3922979 C0.0169534884,18.9100284 0.195976744,19.4270496 0.30272093,19.9959858 M1.63527907,0.400808511 C1.89313953,0.685205674 2.04230233,0.861801418 2.20374419,1.02591489 C6.39495349,5.29002837 10.5865814,9.55357447 14.7801628,13.8152766 C15.5884884,14.6368369 16.0723953,14.6320142 16.893,13.7981135 C21.0706744,9.55357447 25.2469535,5.30775887 29.4221163,1.06080851 C29.579093,0.901234043 29.7203023,0.725489362 29.8686279,0.557262411 C29.857186,0.478964539 29.8457442,0.400808511 29.8341628,0.322510638 C29.2084884,0.240808511 28.582814,0.089177305 27.957,0.0877588652 C20.0275116,0.0717304965 12.0980233,0.0768368794 4.16853488,0.0782553191 C3.70374419,0.0782553191 3.23532558,0.0603829787 2.775,0.110595745 C2.42518605,0.148751773 2.0854186,0.281943262 1.63527907,0.400808511" id="Fill-1" fill="#FFFFFF" mask="url(#mask-2)"></path>
                    </g>
                    <path d="M31,18.2922269 C30.8837706,18.5579676 30.7673998,18.8237084 30.6903378,19 C27.7577376,16.1590296 24.843802,13.3356199 22,10.5803945 C24.8621838,7.80349274 27.844132,4.91038946 30.8440377,2 C30.8446033,2.00068596 30.922231,2.12072889 31,2.24077183 L31,18.2922269 Z" id="Fill-4" fill="#000000"></path>
                    <g id="Group-8" transform="translate(1.000000, 0.000000)">
                        <mask id="mask-4" fill="white">
                            <use xlink:href="#path-3"></use>
                        </mask>
                        <g id="Clip-7"></g>
                        <path d="M0.098727451,0.387841176 C0.54164902,0.272821569 0.875727451,0.143939216 1.21982549,0.107017647 C1.67262941,0.0584294118 2.13339412,0.0757235294 2.5905902,0.0757235294 C10.3905118,0.0743509804 18.1904333,0.0694098039 25.9903549,0.0849196078 C26.6060804,0.0862921569 27.2213941,0.233017647 27.8368451,0.312076471 C27.8482373,0.387841176 27.8594922,0.463468627 27.8707471,0.539233333 C27.7248451,0.702017647 27.5859431,0.872076471 27.4315314,1.02648824 C23.3245902,5.13603725 19.2166882,9.24448824 15.1072765,13.3517039 C14.2999431,14.1586255 13.8240804,14.1632922 13.0288255,13.3683118 C8.90376667,9.24448824 4.78062941,5.11888039 0.657903922,0.992723529 C0.4991,0.833919608 0.35237451,0.663037255 0.098727451,0.387841176" id="Fill-6" fill="#000000" mask="url(#mask-4)"></path>
                    </g>
                    <g id="Group-11" transform="translate(0.000000, 2.000000)">
                        <mask id="mask-6" fill="white">
                            <use xlink:href="#path-5"></use>
                        </mask>
                        <g id="Clip-10"></g>
                        <path d="M0.300392308,16.9961817 C0.194469231,16.4550151 0.0168230769,15.9632294 0.0147461538,15.470769 C-0.0063,10.6847294 -0.00200769231,5.89868968 0.0100384615,1.11265 C0.0110076923,0.724888095 0.122469231,0.337396032 0.169407692,0.0349039683 C3.12376154,2.91411032 6.0579,5.77361825 8.94980769,8.59184048 C6.18860769,11.2748722 3.30611538,14.0756897 0.300392308,16.9961817" id="Fill-9" fill="#000000" mask="url(#mask-6)"></path>
                    </g>
                    <path d="M26.3599651,21 C27.8965538,20.9619886 28.8852758,20.911073 29,20.8483753 C26.2273367,18.0115484 23.4377334,15.1577496 20.590699,12.2448999 C19.79727,13.0564638 18.9771225,13.931006 18.1151068,14.7603834 C17.7381557,15.1231045 17.3149293,15.490314 16.8447389,15.6869633 C15.5925507,16.2107068 14.4629369,15.9046521 13.5090592,14.9394997 C12.570882,13.9900569 11.6431719,13.029954 10.6380608,12 C7.72560752,14.937536 4.88298035,17.8046599 2,20.7123198 C2.24556222,20.8443076 4.46691559,20.939266 7.53912897,21 L26.3599651,21 Z" id="Fill-12" fill="#000000"></path>
                </g>
            </g>
        </g>
    </g>
</svg>