<?xml version="1.0" encoding="UTF-8"?>
<svg width="34px" height="34px" viewBox="0 0 34 34" version="1.1" xmlns="http://www.w3.org/2000/svg" xmlns:xlink="http://www.w3.org/1999/xlink">
    <title>Icon_footer_Linkedin</title>
    <g id="Stellenbeschrieb_Chatbot" stroke="none" stroke-width="1" fill="none" fill-rule="evenodd">
        <g id="PF_Stellenbeschrieb_Desktop_alle_Bausteine_Zustand_2" transform="translate(-853.000000, -5663.000000)" fill="#000000">
            <g id="footer_share_open" transform="translate(0.000000, 5631.000000)">
                <g id="Icon_footer_Linkedin" transform="translate(853.000000, 32.000000)">
                    <path d="M34,34 L26.945444,34 L26.945444,23.0858868 C26.945444,20.4835818 26.8986264,17.136559 23.2787773,17.136559 C19.6078545,17.136559 19.0481718,19.9723772 19.0481718,22.9007592 L19.0481718,34 L12,34 L12,11.5574865 L18.7630103,11.5574865 L18.7630103,14.6268179 L18.8609015,14.6268179 C19.801509,12.8617946 22.104082,11 25.5366609,11 C32.6805959,11 34,15.6471234 34,21.6911186 L34,34 Z" id="Path"></path>
                    <path d="M4.00312094,8 C1.78725618,8 0,6.20696828 0,4 C0,1.79303172 1.78725618,0 4.00312094,0 C6.20858257,0 8,1.79303172 8,4 C8,6.20696828 6.20858257,8 4.00312094,8 L4.00312094,8 Z" id="Path"></path>
                    <polygon id="Path" points="8 34 1 34 1 11 8 11"></polygon>
                </g>
            </g>
        </g>
    </g>
</svg>