<?xml version="1.0" encoding="UTF-8"?>
<svg width="34px" height="33px" viewBox="0 0 34 33" version="1.1" xmlns="http://www.w3.org/2000/svg" xmlns:xlink="http://www.w3.org/1999/xlink">
    <title>Icon_Footer_Whatsapp</title>
    <g id="Stellenbeschrieb_Chatbot" stroke="none" stroke-width="1" fill="none" fill-rule="evenodd">
        <g id="PF_Stellenbeschrieb_Mobile_alle_Bausteine_Zustand_2" transform="translate(-31.000000, -9492.000000)" fill="#000000" fill-rule="nonzero">
            <g id="Footer" transform="translate(0.000000, 9460.000000)">
                <g id="Icon_Footer_Whatsapp" transform="translate(31.000000, 32.000000)">
                    <path d="M0,33 L2.40132283,24.525875 C0.919534409,22.045375 0.14091936,19.2335 0.142342788,16.350125 C0.146613071,7.335625 7.7406008,0 17.0711705,0 C21.5990946,0.001375 25.8494503,1.705 29.0464693,4.796 C32.2420648,7.887 34.0014217,11.9955 34,16.36525 C33.995728,25.381125 26.4017403,32.71675 17.0711705,32.71675 C14.2385491,32.715375 11.447207,32.02925 8.97471277,30.72575 L0,33 Z M9.39035371,27.765375 C11.7760188,29.1335 14.0535034,29.953 17.0654768,29.954375 C24.8203119,29.954375 31.1374848,23.857625 31.1417561,16.3625 C31.144602,8.85225 24.857321,2.76375 17.0768642,2.761 C9.31633546,2.761 3.00343282,8.85775 3.00058433,16.3515 C2.99916254,19.410875 3.92723751,21.701625 5.48589104,24.09825 L4.06388659,29.11425 L9.39035371,27.765375 Z M25.5989269,20.252375 C25.4935933,20.081875 25.2117546,19.980125 24.7875731,19.77525 C24.364815,19.570375 22.2851868,18.58175 21.896591,18.445625 C21.5094187,18.3095 21.2275799,18.24075 20.9443178,18.6505 C20.6624791,19.058875 19.8511252,19.980125 19.6048722,20.252375 C19.3586191,20.524625 19.1109427,20.559 18.6881846,20.354125 C18.2654265,20.14925 16.9017826,19.718875 15.286192,18.326 C14.0293052,17.2425 13.1795187,15.904625 12.9332657,15.494875 C12.6870127,15.0865 12.907644,14.865125 13.1183113,14.661625 C13.3090507,14.47875 13.5410694,14.1845 13.7531601,13.94525 C13.9680978,13.70875 14.0378457,13.53825 14.1801885,13.264625 C14.3211079,12.992375 14.2513599,12.753125 14.1446028,12.54825 C14.0378457,12.34475 13.1923296,10.333125 12.8407429,9.515 C12.4962733,8.718875 12.1475335,8.826125 11.8884696,8.81375 L11.0771157,8.8 C10.795277,8.8 10.3369332,8.90175 9.94976086,9.3115 C9.56258848,9.72125 8.46939587,10.7085 8.46939587,12.720125 C8.46939587,14.73175 9.98534656,16.674625 10.1960139,16.946875 C10.4081046,17.219125 13.1780953,21.346875 17.4213338,23.1165 C18.4305442,23.53725 19.2191232,23.788875 19.8326206,23.97725 C20.8461013,24.288 21.7684825,24.244 22.4972776,24.1395 C23.3100549,24.022625 24.9996638,23.150875 25.3526739,22.196625 C25.705684,21.241 25.705684,20.422875 25.5989269,20.252375 L25.5989269,20.252375 Z" id="Shape"></path>
                </g>
            </g>
        </g>
    </g>
</svg>