<svg width="297" height="44" viewBox="0 0 297 44" fill="none" xmlns="http://www.w3.org/2000/svg">
<g clip-path="url(#clip0_1522_9177)">
<path d="M41.0543 15.4109C40.4425 15.366 39.8277 15.366 39.2159 15.366C33.3442 15.366 28.1764 16.644 23.9917 19.1282C27.4963 14.4562 29.2575 8.32651 29.1476 1.14333V0H15.8271L15.845 1.31991C15.9311 6.20148 14.7936 9.85294 12.474 12.0947C9.45351 14.9979 4.55301 15.4379 0.962282 15.2613L0 15.2104V28.5562L0.525691 28.5891C1.13751 28.634 1.7523 28.634 2.36412 28.634C8.23581 28.634 13.4036 27.356 17.5883 24.8718C14.0837 29.5438 12.3225 35.6735 12.4324 42.8567V44H25.7529L25.7351 42.6801C25.6489 37.7985 26.7864 34.1471 29.106 31.9053C32.1265 29.0021 37.027 28.5621 40.6177 28.7387L41.58 28.7896V15.4438L41.0543 15.4109Z" fill="#FFCC00"/>
<path d="M74.0391 16.4734C74.0391 21.5436 70.5286 26.2276 64.4549 26.2276H57.4784V37.2987H51.975V6.71926H64.4787C70.5286 6.71926 74.0391 11.4063 74.0391 16.4734ZM57.4784 11.6906V21.2532H63.6471C66.6141 21.2532 68.3931 19.3647 68.4407 16.4704C68.3931 13.5762 66.6141 11.6876 63.6471 11.6876H57.4784V11.6906ZM136.368 33.306C133.213 33.306 132.073 32.5398 132.073 29.8641V19.6071H137.814V15.0637H131.336C132.379 14.082 133.305 12.7202 133.163 9.58954H128.179C128.179 9.85292 127.918 14.6836 123.481 16.6201V19.6101H126.896V30.4178C126.896 35.6076 130.145 37.9003 135.343 37.9003C136.246 37.9003 137.169 37.8524 138.072 37.7087V33.2132C137.478 33.2611 136.935 33.309 136.365 33.309L136.368 33.306ZM162.435 6.74021H142.86V37.2957H148.387V24.791H161.39V19.8645H148.387V11.7355H162.432V6.73722L162.435 6.74021ZM171.604 14.6058H166.362V37.3196H171.604V14.6058ZM176.611 37.3226H181.853V24.363C181.853 20.6337 184.773 19.0324 187.19 19.0324C189.349 19.0324 190.986 20.3464 190.986 23.5758V37.3226H196.228V22.9293C196.228 17.3594 193.522 14.0581 188.375 14.0581C185.408 14.0581 182.444 15.6593 181.565 18.6493L181.161 14.6088H176.605V37.3226H176.611ZM199.836 25.9403C199.836 20.1069 203.204 14.082 210.656 14.082C214.072 14.082 216.635 16.0185 217.039 17.7155L217.395 14.6297H221.999V32.1088C221.999 32.8032 222.355 33.6143 223.92 33.5904V37.4872L222.735 37.6309C219.673 37.8224 217.16 36.0296 217.042 33.8537V33.8059C216.4 35.9099 213.674 37.8943 210.659 37.8943C203.187 37.8943 199.839 31.4384 199.839 25.9403H199.836ZM216.92 26.6346V24.8658C216.92 21.0407 214.309 18.9367 211.131 18.9367C207.074 18.9367 205.248 22.7138 205.248 25.9193C205.248 29.1248 206.528 32.9499 211.131 32.9499C214.903 32.9738 216.92 30.1275 216.92 26.6376V26.6346ZM228.203 14.6058V37.3196H233.445V24.36C233.445 20.6307 236.364 19.0294 238.782 19.0294C240.941 19.0294 242.578 20.3434 242.578 23.5728V37.3196H247.82V22.9263C247.82 17.3564 245.114 14.0551 239.967 14.0551C237 14.0551 234.036 15.6563 233.157 18.6463L232.753 14.6058H228.197H228.203ZM267.594 29.6695C266.644 32.7553 264.416 33.0636 262.99 33.0636C260.071 33.0636 256.703 31.1511 256.703 26.0809C256.703 21.0108 260.118 19.0025 262.99 19.0025C264.484 19.0025 266.81 19.3617 267.546 22.3966L272.699 21.0617C271.669 16.7637 267.46 14.1718 263.017 14.1718C256.041 14.1718 251.559 19.5502 251.559 26.0301C251.559 32.5099 255.735 37.8404 262.993 37.8883C267.74 37.9332 271.185 35.3832 272.426 30.9266L267.597 29.6635L267.594 29.6695ZM296.338 31.4115C295.105 35.1647 291.924 37.8943 286.866 37.8943C279.795 37.8943 275.265 32.5159 275.265 25.9882C275.265 19.1013 279.798 14.1299 286.513 14.1299C291.188 14.1539 297 17.0002 297 25.7248L296.952 27.2302H280.614C280.472 30.5285 283.264 33.3509 286.822 33.3509C288.648 33.3509 290.784 32.8002 291.568 30.1724L296.341 31.4115H296.338ZM280.828 23.477L291.6 23.4651C291.6 20.5229 289.337 18.4069 286.635 18.4069C283.573 18.4069 281.116 20.6786 280.831 23.477H280.828ZM169.138 11.092C170.751 11.092 172.129 9.75415 172.129 8.12597C172.129 6.49778 170.754 5.15991 169.138 5.15991C167.573 5.15991 166.195 6.49778 166.195 8.12597C166.195 9.75415 167.57 11.092 169.138 11.092ZM87.1843 13.8905C80.4216 13.8905 75.6548 19.3168 75.6548 25.8924C75.6548 32.468 80.3533 37.8943 87.2318 37.8943C94.0658 37.8943 98.7614 32.4201 98.7614 25.8924C98.7614 19.3168 94.0628 13.8905 87.1843 13.8905ZM87.2318 33.1624C83.5075 33.1624 80.4692 29.912 80.4692 25.8714C80.4692 21.8309 83.5075 18.5805 87.2318 18.5805C90.9562 18.5805 93.9945 21.8309 93.9945 25.8714C93.9945 29.912 90.9562 33.1624 87.2318 33.1624ZM111.812 37.8943C117.624 37.8943 121.491 34.6918 121.491 29.9329C121.491 24.6024 116.626 23.9799 112.498 23.4531C109.483 23.046 106.828 22.639 106.828 20.4152C106.828 18.8618 108.155 17.7365 110.932 17.7365C113.852 17.7365 115.417 19.0025 116.059 21.2502L121.066 19.9603C120.139 16.1352 116.938 13.3607 111.149 13.3607C105.289 13.3607 101.518 16.1831 101.518 20.939C101.518 26.3174 106.335 27.0357 110.534 27.6822C113.62 28.1611 116.133 28.5442 116.133 30.6722C116.133 32.3692 114.577 33.4646 111.918 33.4646C109.142 33.4646 107 32.2285 106.287 29.6695L101.232 30.9835C102.489 35.3113 106.617 37.8943 111.815 37.8943H111.812Z" fill="#fff"/>
</g>
<defs>
<clipPath id="clip0_1522_9177">
<rect width="297" height="44" fill="white"/>
</clipPath>
</defs>
</svg>
