<?xml version="1.0" encoding="utf-8"?>
<!-- Generator: Adobe Illustrator 24.0.2, SVG Export Plug-In . SVG Version: 6.00 Build 0)  -->
<svg version="1.1" id="Ebene_1" xmlns="http://www.w3.org/2000/svg" xmlns:xlink="http://www.w3.org/1999/xlink" x="0px" y="0px"
	 viewBox="0 0 33.5 30.2" style="enable-background:new 0 0 33.5 30.2;" xml:space="preserve">
<style type="text/css">
	.st0{fill:#1A1919;}
</style>
<title>Icon_Footer_Print</title>
<g id="Clip-6">
</g>
<g>
	<path class="st0" d="M29.9,7.1h-1.2V0H4.8v7.1H3.6c-2,0-3.6,1.6-3.6,3.6v10.6c0,2,1.6,3.6,3.6,3.6h1.2v5.3h23.9V18.7H4.8V24H3.6
		C2.2,24,1,22.8,1,21.3V10.7c0-1.5,1.2-2.6,2.6-2.6h26.2c1.5,0,2.6,1.2,2.6,2.6v11.1h1V10.7C33.5,8.7,31.9,7.1,29.9,7.1z M5.8,19.7
		h21.9v9.5H5.8V19.7z M5.8,1h21.9v6.1H5.8V1z"/>
	<rect x="3.5" y="11" class="st0" width="5.2" height="1"/>
</g>
</svg>
