<?xml version="1.0" encoding="utf-8"?>
<!-- Generator: Adobe Illustrator 24.0.2, SVG Export Plug-In . SVG Version: 6.00 Build 0)  -->
<svg version="1.1" id="Ebene_1" xmlns="http://www.w3.org/2000/svg" xmlns:xlink="http://www.w3.org/1999/xlink" x="0px" y="0px"
	 viewBox="0 0 33.2 31.2" style="enable-background:new 0 0 33.2 31.2;" xml:space="preserve">
<style type="text/css">
	.st0{fill:#1A1919;}
</style>
<title>Icon_Footer_Share_closed</title>
<g>
	<polygon class="st0" points="24,30.2 1,30.2 1,7.2 11.8,7.2 11.8,6.2 0,6.2 0,31.2 25,31.2 25,15.8 24,15.8 	"/>
	<path class="st0" d="M27.5,0l-0.7,0.7l4.5,4.5h-5.1c-7.3,0-13.2,6-13.2,13.4c0,1.1,0.1,2.2,0.4,3.2l0.1,0.5l1-0.2l-0.1-0.5
		c-0.2-1-0.3-2-0.3-3c0-6.8,5.5-12.4,12.2-12.4h5.1l-4.5,4.5l0.7,0.7l5.7-5.7L27.5,0z"/>
</g>
</svg>
